<?xml version="1.0" encoding="UTF-8" standalone="no"?>
<!-- Created with Inkscape (http://www.inkscape.org/) -->

<svg
   width="19.5in"
   height="11in"
   viewBox="0 0 495.30001 279.4"
   version="1.1"
   id="svg1"
   xml:space="preserve"
   inkscape:version="1.4 (86a8ad7, 2024-10-11)"
   sodipodi:docname="template.svg"
   xmlns:inkscape="http://www.inkscape.org/namespaces/inkscape"
   xmlns:sodipodi="http://sodipodi.sourceforge.net/DTD/sodipodi-0.dtd"
   xmlns="http://www.w3.org/2000/svg"
   xmlns:svg="http://www.w3.org/2000/svg"><sodipodi:namedview
     id="namedview1"
     pagecolor="#ffffff"
     bordercolor="#000000"
     borderopacity="0.25"
     inkscape:showpageshadow="2"
     inkscape:pageopacity="0.0"
     inkscape:pagecheckerboard="0"
     inkscape:deskcolor="#d1d1d1"
     inkscape:document-units="in"
     inkscape:zoom="0.89008852"
     inkscape:cx="266.26565"
     inkscape:cy="448.83176"
     inkscape:window-width="2560"
     inkscape:window-height="1369"
     inkscape:window-x="2552"
     inkscape:window-y="-8"
     inkscape:window-maximized="1"
     inkscape:current-layer="g6-9-2-1-2-2-8" /><defs
     id="defs1"><rect
       x="-162.8567"
       y="18.271729"
       width="253.42093"
       height="61.964993"
       id="rect3" /></defs><g
     inkscape:label="Layer 1"
     inkscape:groupmode="layer"
     id="layer1"><g
       id="g6-9-2-1-2-2-8"
       transform="scale(0.99987217)"
       inkscape:label="Nametag"><text
         xml:space="preserve"
         style="font-weight:300;font-size:5.64444px;font-family:'Nirmala Text';-inkscape-font-specification:'Nirmala Text Light';text-align:start;writing-mode:lr-tb;direction:ltr;text-anchor:start;fill:#000000;stroke:none;stroke-width:0.264583"
         x="2.8896029"
         y="13.777733"
         id="text2-5-6-2-5-8-8"
         inkscape:label="Participant Name"><tspan
           sodipodi:role="line"
           id="tspan2-38-7-7-6-2-2"
           x="2.8896029"
           y="13.777733"
           style="font-style:normal;font-variant:normal;font-weight:bold;font-stretch:normal;font-family:Raleway;-inkscape-font-specification:'Raleway Light';stroke-width:0.264583;stroke:none">{{NAME}}</tspan></text><path
         style="fill:#000000;stroke-width:0.0808956"
         d="m 71.700345,15.524834 c 0.01447,-0.02022 0.08633,-0.120219 0.159787,-0.222213 l 0.13356,-0.185446 2.290492,0.0014 2.290493,0.0014 0.139171,0.191777 c 0.07665,0.105478 0.148634,0.204876 0.160207,0.220887 l 0.021,0.02911 H 74.284558 71.67406 Z m 5.244853,-0.269221 c -0.08633,-0.119185 -0.158036,-0.220612 -0.159203,-0.225393 -0.0023,-0.0075 1.405984,-4.35223 1.422539,-4.390194 0.0047,-0.01097 0.06312,-0.03467 0.267739,-0.108453 0.14385,-0.05187 0.262535,-0.09328 0.263725,-0.09203 0.0023,0.0029 -1.628491,5.023548 -1.633858,5.028899 -0.0023,0.0021 -0.07455,-0.09365 -0.160942,-0.212834 z m -6.281191,-2.318955 c -0.448431,-1.379681 -0.814753,-2.509345 -0.814006,-2.510366 0.0035,-0.0055 0.526015,0.188411 0.530647,0.197056 0.0035,0.0056 0.324893,0.993291 0.715271,2.194757 l 0.709741,2.184479 -0.01563,0.02189 c -0.1071,0.150461 -0.304103,0.420316 -0.306985,0.420482 -0.0023,1.22e-4 -0.370661,-1.128612 -0.819105,-2.508292 z m 3.615394,1.749302 c -0.179247,-0.164636 -0.292565,-0.305717 -0.401636,-0.500054 -0.04293,-0.07656 -0.05472,-0.08911 -0.08832,-0.09456 -0.03488,-0.0056 -0.07618,0.01073 -0.146242,0.05774 -0.102433,0.06884 -0.185745,0.10507 -0.29687,0.128994 -0.0798,0.01717 -0.263398,0.01743 -0.332184,4.78e-4 -0.190692,-0.04702 -0.308,-0.154764 -0.348075,-0.319699 -0.07537,-0.310054 0.01983,-0.555133 0.291585,-0.750771 0.05647,-0.04067 0.06638,-0.04143 0.06662,-0.005 1.75e-4,0.02411 0.03348,0.132979 0.05483,0.178902 0.02438,0.05234 0.08085,0.113715 0.125836,0.136502 0.0462,0.02344 0.11802,0.03707 0.202942,0.03855 0.0672,0.0011 0.07408,1.5e-5 0.103716,-0.01743 0.0637,-0.03749 0.146172,-0.131632 0.167067,-0.190859 0.01563,-0.04426 0.0082,-0.05859 -0.042,-0.08139 -0.05518,-0.02504 -0.110717,-0.07728 -0.140525,-0.132195 -0.02205,-0.04073 -0.0231,-0.04584 -0.0231,-0.114532 0,-0.06604 0.0012,-0.07527 0.02042,-0.113003 0.01377,-0.02769 0.04002,-0.06054 0.08062,-0.100718 l 0.0602,-0.05963 -0.01447,-0.06708 c -0.0343,-0.158851 -0.105584,-0.331668 -0.184089,-0.446324 -0.07642,-0.11151 -0.194343,-0.210208 -0.294758,-0.246611 -0.127015,-0.04605 -0.266735,-0.04975 -0.401695,-0.01073 -0.08808,0.02553 -0.134878,0.05281 -0.198426,0.115699 -0.07385,0.07306 -0.113634,0.152945 -0.140432,0.281065 -0.0105,0.04899 -0.0119,0.245809 -0.0035,0.365888 l 0.0058,0.08507 -0.04737,-0.02623 c -0.08517,-0.04725 -0.210187,-0.128718 -0.290418,-0.18922 -0.288867,-0.217823 -0.431189,-0.451256 -0.48391,-0.793717 -0.0224,-0.145646 -0.01447,-0.452495 0.01458,-0.563715 0.04212,-0.161093 0.145285,-0.325173 0.304593,-0.484559 0.208927,-0.209028 0.368714,-0.280692 0.650977,-0.291963 0.202195,-0.008 0.387286,0.02821 0.622696,0.122039 0.04667,0.01863 0.08913,0.03232 0.09415,0.03039 0.0047,-0.002 0.0093,-0.01369 0.0093,-0.02681 0,-0.01281 0.0058,-0.05837 0.01353,-0.101243 0.056,-0.321014 0.192885,-0.6207497 0.50134,-1.0970664 0.189886,-0.29324 0.261659,-0.406679 0.317543,-0.5018827 0.06522,-0.111195 0.152063,-0.277694 0.18711,-0.358913 l 0.02205,-0.05119 0.0364,0.07859 c 0.08353,0.180109 0.166786,0.319311 0.421924,0.7052907 0.227722,0.3445057 0.312305,0.4829247 0.394637,0.6459447 0.1141,0.2260327 0.174113,0.4011197 0.207678,0.6069777 0.0082,0.0466 0.01552,0.08634 0.01738,0.08833 0.0023,0.002 0.03512,-0.0097 0.07373,-0.02578 0.22743,-0.09535 0.372843,-0.129689 0.573545,-0.135432 0.193106,-0.0055 0.312561,0.01447 0.435551,0.0729 0.294117,0.139712 0.56945,0.481925 0.612057,0.760721 0.0035,0.02448 0.0105,0.09536 0.01447,0.157531 0.03162,0.468621 -0.09928,0.810805 -0.412218,1.078534 -0.125487,0.107344 -0.355308,0.259972 -0.385046,0.255734 -0.01715,-0.0024 -0.01738,-0.0082 -0.0082,-0.180181 0.01225,-0.229066 -0.03255,-0.396215 -0.136803,-0.508738 -0.104884,-0.113295 -0.247124,-0.16504 -0.431492,-0.15699 -0.09158,0.0041 -0.156648,0.01953 -0.224851,0.0537 -0.207305,0.103891 -0.364222,0.348525 -0.433569,0.675933 l -0.0168,0.07915 0.02252,0.01699 c 0.04947,0.03728 0.09963,0.09535 0.122442,0.141491 0.02158,0.04397 0.02345,0.05234 0.02333,0.112711 0,0.05881 -0.0023,0.06921 -0.02053,0.10598 -0.02858,0.05675 -0.08062,0.107917 -0.137819,0.135499 -0.0448,0.02162 -0.04725,0.02398 -0.04923,0.04859 -0.0012,0.0159 0.0035,0.03695 0.01178,0.05466 0.03173,0.06552 0.1351,0.165029 0.190424,0.183288 0.02975,0.0098 0.13426,0.0041 0.198963,-0.01097 0.12579,-0.02915 0.197155,-0.108954 0.237626,-0.265652 0.0093,-0.03463 0.0182,-0.07457 0.02053,-0.0888 l 0.0047,-0.02586 0.05227,0.03612 c 0.118498,0.08192 0.217,0.19481 0.27566,0.315974 0.04993,0.10311 0.05798,0.139647 0.05798,0.261241 0,0.119059 -0.0082,0.159031 -0.05297,0.249996 -0.03873,0.07913 -0.114334,0.155718 -0.195265,0.19758 -0.170719,0.08832 -0.414983,0.09047 -0.616607,0.0054 -0.02998,-0.01263 -0.08867,-0.04525 -0.130421,-0.07251 -0.09042,-0.05895 -0.128625,-0.073 -0.161362,-0.05932 -0.02858,0.01198 -0.04422,0.03244 -0.09415,0.123622 -0.07315,0.13365 -0.146766,0.235505 -0.253015,0.350194 -0.07583,0.08181 -0.194145,0.194694 -0.204155,0.194694 -0.0047,0 -0.04107,-0.03036 -0.08132,-0.06744 z m 2.025846,-5.6658904 -1.893791,-1.3765014 -0.0023,-0.2781 c -0.0012,-0.223119 -8.2e-5,-0.276715 0.007,-0.271103 0.0047,0.0038 0.970246,0.705549 2.145569,1.5593337 1.175323,0.8537864 2.137706,1.5545391 2.138651,1.5572301 0.0012,0.0036 -0.399899,0.15223 -0.493559,0.182969 -0.0047,0.0015 -0.860358,-0.6167517 -1.901934,-1.3738284 z m -6.155599,1.2788294 c -0.136512,-0.04946 -0.248174,-0.09147 -0.248162,-0.09335 2.3e-5,-0.0026 4.180842,-3.0425398 4.273475,-3.1074198 0.01388,-0.0098 0.01388,-0.0097 0.01377,0.266339 l -5.9e-5,0.276066 -1.890302,1.3732564 c -1.039675,0.7552917 -1.892624,1.3736554 -1.895471,1.3741444 -0.0023,4.87e-4 -0.116807,-0.03958 -0.25333,-0.08904 z"
         id="path1-2-2-5-0-5-4"
         inkscape:label="Wood Badge Logo" /><g
         id="g5-3-2-3-7-5-5"
         transform="matrix(0.26458333,0,0,0.26458333,0.6405313,0.529167)"
         inkscape:label="Ruler"><g
           id="1 &quot;in. Tick Group-0-2-0-4-2-8-5"
           fill="none"
           fill-rule="nonzero"
           stroke="none"
           stroke-width="none"
           stroke-linecap="butt"
           stroke-linejoin="miter"
           stroke-miterlimit="10"
           stroke-dasharray="none"
           stroke-dashoffset="0"
           font-family="none"
           font-weight="none"
           font-size="none"
           text-anchor="none"
           style="mix-blend-mode:normal"><path
             d="M 10,0 V 14.4"
             id="1 &quot;in. Tick no. 0-1-1-4-0-1-1"
             fill="none"
             stroke="#000000"
             stroke-width="1" /><text
             x="6"
             y="24.4"
             id="1 &quot;in. label no. 0-0-1-5-9-2-7"
             fill="#000000"
             stroke="none"
             stroke-width="1"
             font-family="monospace"
             font-weight="bold"
             font-size="12px"
             text-anchor="start">0</text><path
             d="M 106,0 V 14.4"
             id="1 &quot;in. Tick no. 1-4-7-5-5-4-1"
             fill="none"
             stroke="#000000"
             stroke-width="1" /><text
             x="102"
             y="24.4"
             id="1 &quot;in. label no. 1-0-5-1-4-9-1"
             fill="#000000"
             stroke="none"
             stroke-width="1"
             font-family="monospace"
             font-weight="bold"
             font-size="12px"
             text-anchor="start">1</text><path
             d="M 202,0 V 14.4"
             id="1 &quot;in. Tick no. 2-7-9-4-3-8-5"
             fill="none"
             stroke="#000000"
             stroke-width="1" /><text
             x="198"
             y="24.4"
             id="1 &quot;in. label no. 2-5-1-1-2-8-2"
             fill="#000000"
             stroke="none"
             stroke-width="1"
             font-family="monospace"
             font-weight="bold"
             font-size="12px"
             text-anchor="start">2</text><path
             d="M 298,0 V 14.4"
             id="1 &quot;in. Tick no. 3-9-8-2-5-2-7"
             fill="none"
             stroke="#000000"
             stroke-width="1" /><text
             x="302"
             y="24.4"
             id="1 &quot;in. label no. 3-0-1-6-6-7-6"
             fill="#000000"
             stroke="none"
             stroke-width="1"
             font-family="monospace"
             font-weight="bold"
             font-size="12px"
             text-anchor="end">3</text></g><g
           id="1/2 &quot;in. Tick Group-8-5-7-6-0-1-1"
           fill="none"
           fill-rule="nonzero"
           stroke="#000000"
           stroke-width="1"
           stroke-linecap="butt"
           stroke-linejoin="miter"
           stroke-miterlimit="10"
           stroke-dasharray="none"
           stroke-dashoffset="0"
           font-family="none"
           font-weight="none"
           font-size="none"
           text-anchor="none"
           style="mix-blend-mode:normal"><path
             d="M 58,0 V 11.52"
             id="1/2 &quot;in. Tick no. 1-1-8-3-8-7-4" /><path
             d="M 154,0 V 11.52"
             id="1/2 &quot;in. Tick no. 3-2-6-3-8-9-2" /><path
             d="M 250,0 V 11.52"
             id="1/2 &quot;in. Tick no. 5-0-6-0-1-5-3" /></g><g
           id="1/4 &quot;in. Tick Group-8-9-9-0-5-0-2"
           fill="none"
           fill-rule="nonzero"
           stroke="#000000"
           stroke-width="1"
           stroke-linecap="butt"
           stroke-linejoin="miter"
           stroke-miterlimit="10"
           stroke-dasharray="none"
           stroke-dashoffset="0"
           font-family="none"
           font-weight="none"
           font-size="none"
           text-anchor="none"
           style="mix-blend-mode:normal"><path
             d="M 34,0 V 9.216"
             id="1/4 &quot;in. Tick no. 1-8-9-8-7-3-2" /><path
             d="M 82,0 V 9.216"
             id="1/4 &quot;in. Tick no. 3-9-2-1-5-4-1" /><path
             d="M 130,0 V 9.216"
             id="1/4 &quot;in. Tick no. 5-1-6-3-7-0-6" /><path
             d="M 178,0 V 9.216"
             id="1/4 &quot;in. Tick no. 7-7-6-8-9-1-8" /><path
             d="M 226,0 V 9.216"
             id="1/4 &quot;in. Tick no. 9-3-5-1-2-5-5" /><path
             d="M 274,0 V 9.216"
             id="1/4 &quot;in. Tick no. 11-3-8-6-3-3-7" /></g><g
           id="1/8 &quot;in. Tick Group-2-0-4-9-7-4-6"
           fill="none"
           fill-rule="nonzero"
           stroke="#000000"
           stroke-width="1"
           stroke-linecap="butt"
           stroke-linejoin="miter"
           stroke-miterlimit="10"
           stroke-dasharray="none"
           stroke-dashoffset="0"
           font-family="none"
           font-weight="none"
           font-size="none"
           text-anchor="none"
           style="mix-blend-mode:normal"><path
             d="M 22,0 V 7.3728"
             id="1/8 &quot;in. Tick no. 1-7-0-8-2-2-1" /><path
             d="M 46,0 V 7.3728"
             id="1/8 &quot;in. Tick no. 3-6-3-0-7-3-8" /><path
             d="M 70,0 V 7.3728"
             id="1/8 &quot;in. Tick no. 5-6-7-1-9-2-9" /><path
             d="M 94,0 V 7.3728"
             id="1/8 &quot;in. Tick no. 7-0-8-3-3-9-2" /><path
             d="M 118,0 V 7.3728"
             id="1/8 &quot;in. Tick no. 9-2-3-9-6-4-7" /><path
             d="M 142,0 V 7.3728"
             id="1/8 &quot;in. Tick no. 11-8-1-3-3-9-9" /><path
             d="M 166,0 V 7.3728"
             id="1/8 &quot;in. Tick no. 13-9-1-9-8-2-5" /><path
             d="M 190,0 V 7.3728"
             id="1/8 &quot;in. Tick no. 15-8-2-3-1-4-4" /><path
             d="M 214,0 V 7.3728"
             id="1/8 &quot;in. Tick no. 17-9-5-6-0-9-3" /><path
             d="M 238,0 V 7.3728"
             id="1/8 &quot;in. Tick no. 19-9-7-5-6-0-1" /><path
             d="M 262,0 V 7.3728"
             id="1/8 &quot;in. Tick no. 21-9-6-5-8-4-2" /><path
             d="M 286,0 V 7.3728"
             id="1/8 &quot;in. Tick no. 23-4-2-4-7-4-3" /></g></g><rect
         style="fill:none;stroke:#ff0000;stroke-width:0.264583"
         id="rect5-2-1-0-6-9-3"
         width="82.550003"
         height="19.049999"
         x="0.13229153"
         y="0.13229127"
         rx="3.175"
         ry="3.175"
         inkscape:label="Nametag Border" /></g></g></svg>
